<?xml version="1.0" encoding="UTF-8" standalone="no"?>
<!-- Created with Inkscape (http://www.inkscape.org/) -->

<svg
   width="100mm"
   height="100mm"
   viewBox="0 0 100 100"
   version="1.1"
   id="svg1"
   inkscape:version="1.4.1 (93de688d07, 2025-03-30)"
   sodipodi:docname="icon.svg"
   xmlns:inkscape="http://www.inkscape.org/namespaces/inkscape"
   xmlns:sodipodi="http://sodipodi.sourceforge.net/DTD/sodipodi-0.dtd"
   xmlns:xlink="http://www.w3.org/1999/xlink"
   xmlns="http://www.w3.org/2000/svg"
   xmlns:svg="http://www.w3.org/2000/svg">
  <sodipodi:namedview
     id="namedview1"
     pagecolor="#505050"
     bordercolor="#eeeeee"
     borderopacity="1"
     inkscape:showpageshadow="0"
     inkscape:pageopacity="0"
     inkscape:pagecheckerboard="0"
     inkscape:deskcolor="#505050"
     inkscape:document-units="mm"
     showguides="false"
     inkscape:zoom="1.505037"
     inkscape:cx="167.43774"
     inkscape:cy="234.87795"
     inkscape:window-width="1920"
     inkscape:window-height="1056"
     inkscape:window-x="0"
     inkscape:window-y="0"
     inkscape:window-maximized="1"
     inkscape:current-layer="layer1" />
  <defs
     id="defs1">
    <linearGradient
       id="linearGradient5"
       inkscape:collect="always">
      <stop
         style="stop-color:#d05454;stop-opacity:1;"
         offset="0.43942785"
         id="stop5" />
      <stop
         style="stop-color:#e5c966;stop-opacity:1;"
         offset="0.43942785"
         id="stop6" />
    </linearGradient>
    <linearGradient
       inkscape:collect="always"
       xlink:href="#linearGradient5"
       id="linearGradient6"
       x1="29.66638"
       y1="71.936066"
       x2="80.403595"
       y2="15.587914"
       gradientUnits="userSpaceOnUse" />
  </defs>
  <g
     inkscape:label="Layer 1"
     inkscape:groupmode="layer"
     id="layer1"
     transform="matrix(0.99446429,0,0,0.95482033,1.4595362,0.9182148)">
    <path
       style="fill:url(#linearGradient6);stroke:#480606;stroke-width:16.392;stroke-linecap:round;stroke-dasharray:none;stroke-opacity:1;paint-order:stroke fill markers"
       d="m 8.2625321,7.5593378 c 0,0 -6.1529494,40.9610632 6.3287479,58.1893222 12.481698,17.228259 52.397754,6.245563 52.397754,6.245563 0,0 13.337589,8.4904 8.944199,12.949752 -4.34095,4.406124 -21.084085,1.373116 -21.084085,1.373116 l -0.175796,8.262532 c 0,0 18.159162,4.596817 30.038067,-4.663377 8.258615,-6.438 -11.222728,-22.401281 -11.222728,-22.401281 0,0 23.554068,-18.810446 5.446818,-41.48846 C 60.828257,3.3484912 8.2625321,7.5593378 8.2625321,7.5593378 Z"
       id="path1"
       sodipodi:nodetypes="cscsccscsc" />
    <path
       style="fill:none;stroke:#480606;stroke-width:11.4916;stroke-linecap:round;paint-order:stroke fill markers;stroke-opacity:1"
       d="m 20.744229,29.006761 c 16.349266,6.504547 44.125439,1.582186 44.125439,1.582186"
       id="path2" />
    <path
       style="fill:none;stroke:#480606;stroke-width:11.4916;stroke-linecap:round;stroke-opacity:1;paint-order:stroke fill markers"
       d="m 34.129298,49.228259 c 9.452795,2.05265 25.71904,1.100563 33.753325,-1.406389"
       id="path2-3"
       sodipodi:nodetypes="cc" />
  </g>
</svg>
